Coordinates
version=1
nRows=13
nColumns=30
inDegrees=yes

Units are S.I. units (second, meters, Newtons, ...)
Angles are in degrees.

endheader
time	floatyaw	floatroll	floatpitch	floatx	floaty	floatz	pro_sup_l	deviation_l	flexion_l	cmc_flexion_l	cmc_abduction_l	mp_flexion_l	ip_flexion_l	2mcp_flexion_l	2mcp_abduction_l	2pm_flexion_l	2md_flexion_l	3mcp_flexion_l	3mcp_abduction_l	3pm_flexion_l	3md_flexion_l	4mcp_flexion_l	4mcp_abduction_l	4pm_flexion_l	4md_flexion_l	5mcp_flexion_l	5mcp_abduction_l	5pm_flexion_l	5md_flexion_l
-0.995000	-2.367547	-3.808797	97.590660	-0.101372	-0.188296	-0.033228	86.940242	2.486561	-1.315697	12.643071	6.517689	-22.426327	-34.517993	38.858962	10.677737	47.252395	32.903849	22.623387	5.536713	46.341726	32.368506	11.807037	-4.647912	61.319018	42.219124	7.086977	-11.529291	61.146233	41.620117
-0.985000	-2.367547	-3.808797	97.590660	-0.101380	-0.188287	-0.033207	86.965553	2.495825	-1.330759	12.604463	6.449317	-22.432179	-34.518966	38.879652	10.658468	47.245095	32.908366	22.651531	5.526636	46.337038	32.366874	11.826676	-4.647744	61.323196	42.223460	7.098144	-11.495582	61.077003	41.581720
-0.975000	-2.367547	-3.808797	97.590660	-0.101383	-0.188292	-0.033196	86.971313	2.503801	-1.352526	12.573023	6.396111	-22.425130	-34.512204	38.917812	10.634353	47.248914	32.910418	22.690741	5.511192	46.346402	32.369108	11.854589	-4.647123	61.338945	42.230779	7.093227	-11.441092	61.029992	41.556908
-0.965000	-2.367547	-3.808797	97.590660	-0.101378	-0.188308	-0.033194	86.963566	2.511982	-1.377556	12.547343	6.354597	-22.410654	-34.499992	38.968162	10.609398	47.263090	32.909836	22.733366	5.494682	46.367469	32.374899	11.892238	-4.648193	61.360778	42.237884	7.073456	-11.373017	61.013207	41.548831
-0.955000	-2.367547	-3.808797	97.590660	-0.101365	-0.188328	-0.033196	86.952531	2.521210	-1.401859	12.525565	6.317569	-22.398397	-34.488319	39.022183	10.587604	47.285470	32.907546	22.772313	5.481813	46.395693	32.383206	11.938019	-4.653111	61.382245	42.242120	7.044032	-11.301737	61.026380	41.556752
-0.945000	-2.367547	-3.808797	97.590660	-0.101345	-0.188342	-0.033198	86.947873	2.530805	-1.422360	12.506102	6.279109	-22.397578	-34.484031	39.071131	10.571626	47.313447	32.905076	22.803943	5.475609	46.425548	32.392444	11.986801	-4.662635	61.398493	42.242580	7.013053	-11.237930	61.061938	41.577046
-0.935000	-2.367547	-3.808797	97.590660	-0.101324	-0.188348	-0.033194	86.954532	2.538749	-1.437920	12.488107	6.238309	-22.412885	-34.491668	39.108870	10.561567	47.344583	32.903959	22.828815	5.475958	46.451929	32.400930	12.032079	-4.675361	61.407051	42.239956	6.988070	-11.188918	61.107592	41.604640
-0.925000	-2.367547	-3.808797	97.590660	-0.101304	-0.188346	-0.033183	86.970774	2.542554	-1.449269	12.471721	6.199006	-22.442782	-34.511471	39.133414	10.554729	47.377034	32.905381	22.850074	5.479899	46.471225	32.407325	12.069026	-4.688067	61.407583	42.235715	6.972867	-11.156767	61.149774	41.634251
-0.915000	-2.367547	-3.808797	97.590660	-0.101290	-0.188341	-0.033165	86.989078	2.540085	-1.458007	12.457868	6.166236	-22.480495	-34.539279	39.146822	10.547005	47.409776	32.910019	22.870910	5.483658	46.481854	32.410893	12.096033	-4.697059	61.401737	42.231541	6.967413	-11.139755	61.177343	41.661141
-0.905000	-2.367547	-3.808797	97.590660	-0.101281	-0.188340	-0.033146	86.999562	2.530202	-1.465644	12.447487	6.142611	-22.516673	-34.568142	39.154067	10.535351	47.442442	32.917761	22.892946	5.485031	46.484484	32.411621	12.113981	-4.699820	61.393374	42.229344	6.971689	-11.135686	61.184794	41.681554
-0.895000	-2.367547	-3.808797	97.590660	-0.101277	-0.188348	-0.033128	86.994668	2.513460	-1.473404	12.440450	6.127298	-22.542529	-34.590958	39.161606	10.519616	47.474842	32.927231	22.916224	5.484422	46.482088	32.410323	12.124571	-4.696160	61.388584	42.231441	6.991254	-11.143728	61.173923	41.693024
-0.885000	-2.367547	-3.808797	97.590660	-0.101274	-0.188367	-0.033115	86.972861	2.492633	-1.482580	12.434682	6.117767	-22.552633	-34.603140	39.175690	10.502413	47.506594	32.935609	22.939918	5.484082	46.479642	32.408719	12.129390	-4.688341	61.394725	42.240323	7.040919	-11.163269	61.153032	41.694499
-0.875000	-2.367547	-3.808797	97.590660	-0.101269	-0.188396	-0.033109	86.939114	2.472294	-1.494593	12.425903	6.112222	-22.546778	-34.604266	39.200263	10.487228	47.537260	32.939360	22.962693	5.486400	46.483115	32.409288	12.130097	-4.680111	61.418366	42.257843	7.142855	-11.191552	61.133515	41.686092
